<svg width="40" height="40" viewBox="0 0 40 40" fill="none" xmlns="http://www.w3.org/2000/svg">
<path d="M32.5 6C31.138 7.30284 29.5182 8.30603 27.745 8.945C25.875 9.275 20.7 6.875 18.15 9.325C17.725 9.75 17.2 10.175 16.65 10.6C15.45 10.075 13.6 9.275 12.25 8.5C10.9 7.725 7.5 6 7.5 6L0 14.75C0 14.75 1.85 17.25 3 18.9C3.75 20 4.675 21.675 5.275 22.8L4.425 23.8C4.2229 24.2047 4.15047 24.6619 4.21757 25.1092C4.28467 25.5566 4.48805 25.9724 4.8 26.3C5.16106 26.5722 5.60116 26.7191 6.05334 26.7182C6.50552 26.7173 6.94503 26.5687 7.305 26.295C7.17134 26.4515 7.07019 26.633 7.00743 26.829C6.94468 27.025 6.92159 27.2316 6.93951 27.4366C6.95743 27.6416 7.016 27.841 7.1118 28.0232C7.2076 28.2053 7.33872 28.3666 7.4975 28.4975C7.87977 28.719 8.31389 28.8352 8.75568 28.8343C9.19746 28.8334 9.63112 28.7155 10.0125 28.4925C9.72686 28.8485 9.57057 29.291 9.5692 29.7474C9.56784 30.2039 9.72149 30.6473 10.005 31.005C10.3735 31.133 10.7666 31.1738 11.1535 31.1244C11.5404 31.0749 11.9106 30.9365 12.235 30.72C12.0726 31.1026 12.0303 31.5256 12.1138 31.9328C12.1973 32.34 12.4026 32.7122 12.7025 33C13.1256 33.1862 13.5889 33.2628 14.0495 33.2226C14.51 33.1824 14.953 33.0267 15.3375 32.77L16.6275 31.6025C17.8075 32.7775 19.435 33.505 21.2325 33.505L21.385 33.5025C21.9774 33.4522 22.545 33.2416 23.0268 32.8932C23.5087 32.5448 23.8866 32.0718 24.12 31.525C24.485 31.665 24.9 31.76 25.34 31.76C25.93 31.76 26.4775 31.59 26.94 31.2975C28.4025 30.33 28.0525 29.58 28.0525 29.58C28.5725 29.8039 29.1502 29.8569 29.7023 29.7316C30.2545 29.6063 30.7526 29.309 31.125 28.8825C31.512 28.4866 31.756 27.973 31.8185 27.4229C31.881 26.8728 31.7584 26.3176 31.47 25.845C31.486 25.8539 31.5042 25.8582 31.5225 25.8575C32.575 25.8575 33.49 25.2775 33.9675 24.4225C34.2034 23.815 34.2833 23.158 34.1999 22.5117C34.1165 21.8654 33.8724 21.2502 33.49 20.7225L33.4975 20.735C35.5475 20.335 35.4725 19.31 36.4725 17.81C37.4182 16.5848 38.5966 15.5585 39.94 14.79L32.5 6ZM32.375 23.65C31.275 24.75 30.425 24.275 28.55 22.85C26.675 21.425 22.95 18.75 22.95 18.75C23.1025 19.5125 23.455 20.175 23.9525 20.7025C24.75 21.6 27.125 23.65 28.25 24.7C28.95 25.35 30.75 26.65 29.7 27.65C28.65 28.65 27.825 27.65 26.1 26.25C24.375 24.85 20.525 21.4 20.525 21.4C20.5043 21.7307 20.5537 22.062 20.67 22.3722C20.7864 22.6824 20.967 22.9645 21.2 23.2C21.625 23.7 24 26 25 27.05C26 28.1 26.875 28.725 26.025 29.55C25.175 30.375 23.45 29.075 22.5 28.1C21.025 26.675 18.1 24.025 18.1 24.025L18.0975 24.1575C18.0975 24.8675 18.3425 25.5175 18.755 26.0325C19.475 26.9775 20.875 28.2025 21.725 29.1525C22.575 30.1025 23.075 30.9025 21.725 31.6525C20.375 32.4025 18.375 30.5525 17.5 29.6525V29.6475C17.5027 29.4001 17.4137 29.1605 17.25 28.975C16.9504 28.6989 16.5814 28.5094 16.1825 28.4266C15.7836 28.3439 15.3697 28.3709 14.985 28.505C15.1429 28.3631 15.2694 28.1899 15.3565 27.9963C15.4436 27.8027 15.4893 27.5931 15.4907 27.3808C15.4921 27.1686 15.4492 26.9583 15.3647 26.7636C15.2802 26.5689 15.156 26.394 15 26.25C14.6718 26.0014 14.2713 25.867 13.8596 25.8675C13.4479 25.8679 13.0476 26.0031 12.72 26.2525C12.8857 26.0943 13.0135 25.9007 13.0941 25.6863C13.1747 25.4719 13.206 25.242 13.1856 25.0138C13.1652 24.7857 13.0936 24.565 12.9762 24.3683C12.8588 24.1716 12.6986 24.0038 12.5075 23.8775C12.06 23.5963 11.5348 23.4642 11.0075 23.5001C10.4801 23.536 9.97776 23.7382 9.5725 24.0775C9.84335 23.7492 9.97689 23.329 9.94521 22.9046C9.91353 22.4802 9.71909 22.0844 9.4025 21.8C9.00824 21.4352 8.50697 21.2071 7.97294 21.1495C7.43891 21.0919 6.90052 21.2077 6.4375 21.48L4.775 18.6725C3.625 16.8475 2.275 14.9475 2.275 14.9475L7.975 8.0225C7.975 8.0225 10 9.2725 11.675 10.2225C12.5 10.6975 13.925 11.3225 15 11.8225C13.3 13.0975 11.875 14.3225 12.3 15.1725C13.0568 15.7175 13.9621 16.0182 14.8947 16.0343C15.8272 16.0504 16.7423 15.7811 17.5175 15.2625C18.5114 14.5999 19.6805 14.2491 20.875 14.255C21.7425 14.255 22.5675 14.435 23.315 14.7625C24.7 15.6975 27.25 17.9975 29.575 19.4475C32.5 21.5725 33.075 22.9475 32.375 23.6475V23.65Z" fill="#0150AC"/>
</svg>
