<svg width="20" height="20" viewBox="0 0 20 20" fill="none" xmlns="http://www.w3.org/2000/svg">
<path d="M14.4 0H4.8C2.16024 0 0 2.15928 0 4.8V14.4C0 17.0398 2.16024 19.2 4.8 19.2H14.4C17.0398 19.2 19.2 17.0398 19.2 14.4V4.8C19.2 2.15928 17.0398 0 14.4 0ZM9.6 13.5998C7.39056 13.5998 5.59992 11.8085 5.59992 9.6C5.59992 7.39056 7.39056 5.59992 9.6 5.59992C11.8085 5.59992 13.6001 7.39056 13.6001 9.6C13.6001 11.8085 11.8085 13.5998 9.6 13.5998ZM14.8001 5.59992C14.1367 5.59992 13.6001 5.06256 13.6001 4.39992C13.6001 3.73728 14.1367 3.19992 14.8001 3.19992C15.4634 3.19992 16.0001 3.73728 16.0001 4.39992C16.0001 5.06256 15.4634 5.59992 14.8001 5.59992Z" fill="white"/>
</svg>
