<svg width="91" height="44" viewBox="0 0 91 44" fill="none" xmlns="http://www.w3.org/2000/svg">
<g clip-path="url(#clip0_2648_21247)">
<mask id="mask0_2648_21247" style="mask-type:luminance" maskUnits="userSpaceOnUse" x="0" y="-1" width="91" height="39">
<path d="M90.2468 -0.513672H0.628906V37.1063H90.2468V-0.513672Z" fill="white"/>
</mask>
<g mask="url(#mask0_2648_21247)">
<mask id="mask1_2648_21247" style="mask-type:luminance" maskUnits="userSpaceOnUse" x="0" y="8" width="19" height="26">
<path d="M0.785156 8.54297H18.5536V33.623H0.785156V8.54297Z" fill="white"/>
</mask>
<g mask="url(#mask1_2648_21247)">
<path d="M13.2051 16.0043C13.2051 15.2573 13.0156 14.6804 12.6395 14.2736C12.2619 13.8681 11.8322 13.5769 11.349 13.4027C10.8658 13.2258 10.4347 13.1224 10.0585 13.0925C9.68102 13.0598 9.49294 13.0435 9.49294 13.0435H5.72042V18.7475H9.49294C9.49294 18.7475 9.68102 18.7339 10.0585 18.7039C10.4347 18.6713 10.8658 18.5719 11.349 18.4046C11.8322 18.2386 12.2619 17.9678 12.6395 17.5936C13.0156 17.2208 13.2051 16.6901 13.2051 16.0043ZM18.0154 15.7213C18.0154 17.1773 17.675 18.3311 16.994 19.1829C16.3131 20.036 15.4894 20.6606 14.523 21.0552C15.5292 21.3858 16.2939 21.8376 16.8183 22.4104C17.3455 22.9805 17.7189 23.5629 17.9386 24.1575C18.1582 24.7494 18.2818 25.2488 18.312 25.6543C18.3449 26.057 18.3614 26.2584 18.3614 26.2584C18.3614 27.6517 18.1143 28.7974 17.6201 29.6928C17.1286 30.5854 16.5012 31.2916 15.7365 31.81C14.9705 32.3298 14.1729 32.7135 13.3423 32.9638C12.5145 33.2142 11.7499 33.3707 11.047 33.4319C10.3468 33.4945 9.82928 33.5244 9.49294 33.5244H5.74787V28.9743H9.49294C10.016 28.9743 10.5926 28.9076 11.2227 28.7729C11.8514 28.6355 12.3978 28.3593 12.8591 27.9457C13.3204 27.5293 13.551 26.9251 13.551 26.1332C13.551 25.5536 13.4137 25.0814 13.1392 24.7181C12.8673 24.3562 12.5324 24.08 12.1343 23.8908C11.7348 23.7031 11.3298 23.5779 10.9207 23.5153C10.5143 23.4541 10.1739 23.4173 9.89929 23.4064C9.62747 23.3955 9.49294 23.3901 9.49294 23.3901H0.9375V8.86352C0.9375 8.67846 1.05282 8.58594 1.28345 8.58594H9.49294C9.49294 8.58594 9.69612 8.59682 10.1025 8.61859C10.5116 8.63764 11.0429 8.70432 11.6949 8.81997C12.3457 8.93291 13.0321 9.13021 13.7542 9.41323C14.479 9.69353 15.1654 10.0922 15.8134 10.6106C16.4641 11.1304 16.994 11.8053 17.4004 12.6353C17.8095 13.4667 18.0154 14.4954 18.0154 15.7213Z" fill="white"/>
</g>
<path d="M31.1967 28.8818V33.5244H19.5881C19.3575 33.5244 19.2422 33.4305 19.2422 33.2414V8.86352C19.2422 8.67846 19.3575 8.58594 19.5881 8.58594H31.1967V13.1034H24.0526V18.7475H33.9314C34.162 18.7475 34.2774 18.84 34.2774 19.0251V22.9873C34.2774 23.1724 34.162 23.2649 33.9314 23.2649H24.0526V28.8818H31.1967Z" fill="white"/>
<path d="M52.2025 33.1217C52.2465 33.2237 52.241 33.3162 52.1861 33.3992C52.1339 33.4836 52.046 33.5244 51.9225 33.5244H47.4251C47.2562 33.5244 47.1519 33.4632 47.1121 33.3394L42.5159 23.4554H39.8142V33.2414C39.8142 33.4305 39.6989 33.5244 39.4682 33.5244H35.3443C35.1356 33.5244 35.0312 33.4305 35.0312 33.2414V18.8727H43.4933C43.7459 18.8727 44.0809 18.8536 44.4982 18.8128C44.9183 18.7692 45.3329 18.6549 45.7393 18.4699C46.1484 18.2821 46.4943 17.995 46.7771 17.6099C47.0627 17.2262 47.2055 16.6901 47.2055 16.0043C47.2055 15.3186 47.0531 14.7784 46.7497 14.3824C46.4449 13.9878 46.0715 13.7021 45.6294 13.5279C45.1901 13.351 44.7701 13.2367 44.3719 13.185C43.9725 13.1306 43.68 13.1034 43.4933 13.1034H35.0312V8.86352C35.0312 8.67846 35.1356 8.58594 35.3443 8.58594H43.4933C43.7857 8.58594 44.2566 8.61179 44.9046 8.66214C45.5553 8.71384 46.2843 8.85263 47.0901 9.08122C47.8987 9.30982 48.6744 9.68536 49.4184 10.2079C50.1653 10.7276 50.7775 11.4542 51.258 12.3904C51.7413 13.3238 51.9829 14.528 51.9829 16.0043C51.9829 17.2711 51.7715 18.3474 51.3514 19.2319C50.934 20.1136 50.3739 20.8361 49.671 21.3981C48.9682 21.9573 48.1966 22.3927 47.3592 22.7043C48.1568 24.4718 48.9695 26.219 49.7973 27.9457C50.6279 29.6696 51.4296 31.395 52.2025 33.1217Z" fill="white"/>
<path d="M58.3045 17.6263H63.0874V33.2414C63.0874 33.4305 62.9611 33.5244 62.7085 33.5244H58.6505C58.4198 33.5244 58.3045 33.4305 58.3045 33.2414V17.6263ZM53.4612 12.853C53.2306 12.853 53.1152 12.7605 53.1152 12.5754V8.86352C53.1152 8.67846 53.2306 8.58594 53.4612 8.58594H67.8978C68.1284 8.58594 68.2438 8.67846 68.2438 8.86352V12.5754C68.2438 12.7605 68.1284 12.853 67.8978 12.853H53.4612Z" fill="white"/>
<path d="M88.7495 33.1489C88.7934 33.2332 88.7824 33.3162 88.7165 33.3992C88.6534 33.4836 88.571 33.5244 88.4694 33.5244H84.1258C83.9789 33.5244 83.8856 33.4632 83.8458 33.3394L78.8761 19.4333L73.9669 33.3394C73.945 33.4632 73.8406 33.5244 73.6539 33.5244H69.3433C69.1964 33.5244 69.0962 33.4836 69.0412 33.3992C68.9904 33.3162 68.9863 33.2332 69.0303 33.1489L78.5577 8.77099C78.6016 8.64853 78.7059 8.58594 78.8707 8.58594C79.0381 8.58594 79.1452 8.64853 79.1892 8.77099L88.7495 33.1489Z" fill="white"/>
</g>
<path d="M5.94922 36.969L69.2474 36.999" stroke="#FA8128" stroke-width="1.44494"/>
</g>
<defs>
<clipPath id="clip0_2648_21247">
<rect width="90.1728" height="44" fill="white"/>
</clipPath>
</defs>
</svg>
