<svg width="40" height="40" viewBox="0 0 40 40" fill="none" xmlns="http://www.w3.org/2000/svg">
<path d="M28.4163 33.332L33.4163 28.332L28.4163 23.332L27.2497 24.4987L30.2497 27.4987H23.4163V29.1654H30.208L27.2497 32.1654L28.4163 33.332ZM28.4163 36.6654C26.1108 36.6654 24.1458 35.8526 22.5213 34.227C20.8969 32.6015 20.0841 30.6365 20.083 28.332C20.0819 26.0276 20.8947 24.0626 22.5213 22.437C24.148 20.8115 26.113 19.9987 28.4163 19.9987C30.7197 19.9987 32.6852 20.8115 34.313 22.437C35.9408 24.0626 36.753 26.0276 36.7497 28.332C36.7463 30.6365 35.9336 32.602 34.3113 34.2287C32.6891 35.8554 30.7241 36.6676 28.4163 36.6654ZM15.4997 36.6654L14.833 31.332C14.4719 31.1931 14.1319 31.0265 13.813 30.832C13.4941 30.6376 13.1813 30.4293 12.8747 30.207L7.91634 32.2904L3.33301 24.3737L7.62467 21.1237C7.5969 20.9293 7.58301 20.742 7.58301 20.562V19.437C7.58301 19.2559 7.5969 19.0681 7.62467 18.8737L3.33301 15.6237L7.91634 7.70703L12.8747 9.79036C13.1802 9.56814 13.493 9.35981 13.813 9.16536C14.133 8.97092 14.473 8.80425 14.833 8.66536L15.4997 3.33203H24.6663L25.333 8.66536C25.6941 8.80425 26.0347 8.97092 26.3547 9.16536C26.6747 9.35981 26.9869 9.56814 27.2913 9.79036L32.2497 7.70703L36.833 15.6237L33.7497 17.957C32.9163 17.5404 32.0552 17.2209 31.1663 16.9987C30.2775 16.7765 29.3608 16.6654 28.4163 16.6654C27.8608 16.6654 27.3263 16.7143 26.813 16.812C26.2997 16.9098 25.7786 17.0276 25.2497 17.1654C24.7219 16.2487 24.0069 15.5198 23.1047 14.9787C22.2025 14.4376 21.223 14.1665 20.1663 14.1654C18.5552 14.1654 17.1802 14.7348 16.0413 15.8737C14.9025 17.0126 14.333 18.3876 14.333 19.9987C14.333 21.0543 14.5902 22.0265 15.1047 22.9154C15.6191 23.8043 16.3202 24.5126 17.208 25.0404C17.0413 25.5959 16.9236 26.1726 16.8547 26.7704C16.7858 27.3681 16.7508 27.9581 16.7497 28.5404C16.7775 30.0959 17.0902 31.5754 17.688 32.9787C18.2858 34.382 19.1397 35.6109 20.2497 36.6654H15.4997Z" fill="#0150AC"/>
</svg>
