<svg width="60" height="60" viewBox="0 0 60 60" fill="none" xmlns="http://www.w3.org/2000/svg">
<path d="M42.625 50L50.125 42.5L42.625 35L40.875 36.75L45.375 41.25H35.125V43.75H45.3125L40.875 48.25L42.625 50ZM42.625 55C39.1667 55 36.2192 53.7808 33.7825 51.3425C31.3458 48.9042 30.1267 45.9567 30.125 42.5C30.1233 39.0433 31.3425 36.0958 33.7825 33.6575C36.2225 31.2192 39.17 30 42.625 30C46.08 30 49.0283 31.2192 51.47 33.6575C53.9117 36.0958 55.13 39.0433 55.125 42.5C55.12 45.9567 53.9008 48.905 51.4675 51.345C49.0342 53.785 46.0867 55.0033 42.625 55ZM23.25 55L22.25 47C21.7083 46.7917 21.1983 46.5417 20.72 46.25C20.2417 45.9583 19.7725 45.6458 19.3125 45.3125L11.875 48.4375L5 36.5625L11.4375 31.6875C11.3958 31.3958 11.375 31.115 11.375 30.845V29.1575C11.375 28.8858 11.3958 28.6042 11.4375 28.3125L5 23.4375L11.875 11.5625L19.3125 14.6875C19.7708 14.3542 20.24 14.0417 20.72 13.75C21.2 13.4583 21.71 13.2083 22.25 13L23.25 5H37L38 13C38.5417 13.2083 39.0525 13.4583 39.5325 13.75C40.0125 14.0417 40.4808 14.3542 40.9375 14.6875L48.375 11.5625L55.25 23.4375L50.625 26.9375C49.375 26.3125 48.0833 25.8333 46.75 25.5C45.4167 25.1667 44.0417 25 42.625 25C41.7917 25 40.99 25.0733 40.22 25.22C39.45 25.3667 38.6683 25.5433 37.875 25.75C37.0833 24.375 36.0108 23.2817 34.6575 22.47C33.3042 21.6583 31.835 21.2517 30.25 21.25C27.8333 21.25 25.7708 22.1042 24.0625 23.8125C22.3542 25.5208 21.5 27.5833 21.5 30C21.5 31.5833 21.8858 33.0417 22.6575 34.375C23.4292 35.7083 24.4808 36.7708 25.8125 37.5625C25.5625 38.3958 25.3858 39.2608 25.2825 40.1575C25.1792 41.0542 25.1267 41.9392 25.125 42.8125C25.1667 45.1458 25.6358 47.365 26.5325 49.47C27.4292 51.575 28.71 53.4183 30.375 55H23.25Z" fill="#1560BD"/>
</svg>
