<svg width="32" height="32" viewBox="0 0 32 32" fill="none" xmlns="http://www.w3.org/2000/svg">
<path d="M10 4.99913C10 6.01913 9.69601 6.96513 9.17201 7.75713L13.24 11.8271C14.0583 11.2866 15.0174 10.9987 15.998 10.9991C17.018 10.9991 17.964 11.3031 18.756 11.8271L22.826 7.75713C22.1427 6.72345 21.8676 5.47289 22.054 4.24789C22.2404 3.0229 22.875 1.91075 23.8348 1.12707C24.7946 0.343386 26.0112 -0.0560028 27.2487 0.00633649C28.4862 0.0686758 29.6565 0.588302 30.5327 1.46447C31.4088 2.34064 31.9285 3.51093 31.9908 4.74845C32.0531 5.98597 31.6537 7.20256 30.8701 8.16234C30.0864 9.12213 28.9742 9.75673 27.7492 9.94311C26.5243 10.1295 25.2737 9.85439 24.24 9.17113L20.172 13.2391C20.696 14.0311 21 14.9791 21 15.9971C21 17.0171 20.696 17.9631 20.172 18.7551L24.242 22.8251C25.2757 22.1419 26.5262 21.8668 27.7512 22.0531C28.9762 22.2395 30.0884 22.8741 30.8721 23.8339C31.6557 24.7937 32.0551 26.0103 31.9928 27.2478C31.9305 28.4853 31.4108 29.6556 30.5347 30.5318C29.6585 31.408 28.4882 31.9276 27.2507 31.9899C26.0132 32.0523 24.7966 31.6529 23.8368 30.8692C22.877 30.0855 22.2424 28.9734 22.056 27.7484C21.8696 26.5234 22.1447 25.2728 22.828 24.2391L18.758 20.1691C17.9398 20.7096 16.9806 20.9976 16 20.9971C14.98 20.9971 14.034 20.6931 13.242 20.1691L9.17201 24.2391C9.85527 25.2728 10.1304 26.5234 9.94399 27.7484C9.75761 28.9734 9.123 30.0855 8.16322 30.8692C7.20344 31.6529 5.98685 32.0523 4.74933 31.9899C3.51181 31.9276 2.34152 31.408 1.46535 30.5318C0.58918 29.6556 0.0695538 28.4853 0.00721455 27.2478C-0.0551247 26.0103 0.344264 24.7937 1.12795 23.8339C1.91163 22.8741 3.02378 22.2395 4.24877 22.0531C5.47376 21.8668 6.72433 22.1419 7.75801 22.8251L11.828 18.7551C11.2879 17.9375 11 16.9791 11 15.9991C11 14.9791 11.304 14.0331 11.828 13.2411L7.76001 9.17113C6.8314 9.78586 5.72414 10.073 4.61382 9.98697C3.50351 9.90096 2.45368 9.44673 1.63083 8.69631C0.807977 7.9459 0.2592 6.94226 0.0715213 5.84454C-0.116157 4.74682 0.0680059 3.61787 0.594807 2.6367C1.12161 1.65553 1.96089 0.878319 2.97956 0.428308C3.99824 -0.0217036 5.13799 -0.118754 6.21808 0.152548C7.29818 0.423849 8.25679 1.04797 8.94189 1.92595C9.627 2.80392 9.99939 3.88548 10 4.99913Z" fill="#1560BD"/>
</svg>
