<svg width="40" height="40" viewBox="0 0 40 40" fill="none" xmlns="http://www.w3.org/2000/svg">
<path d="M13.5 8.99913C13.5 10.0191 13.196 10.9651 12.672 11.7571L16.74 15.8271C17.5583 15.2866 18.5174 14.9987 19.498 14.9991C20.518 14.9991 21.464 15.3031 22.256 15.8271L26.326 11.7571C25.6427 10.7234 25.3676 9.47289 25.554 8.24789C25.7404 7.0229 26.375 5.91075 27.3348 5.12707C28.2946 4.34339 29.5112 3.944 30.7487 4.00634C31.9862 4.06868 33.1565 4.5883 34.0327 5.46447C34.9088 6.34064 35.4285 7.51093 35.4908 8.74845C35.5531 9.98597 35.1537 11.2026 34.3701 12.1623C33.5864 13.1221 32.4742 13.7567 31.2492 13.9431C30.0243 14.1295 28.7737 13.8544 27.74 13.1711L23.672 17.2391C24.196 18.0311 24.5 18.9791 24.5 19.9971C24.5 21.0171 24.196 21.9631 23.672 22.7551L27.742 26.8251C28.7757 26.1419 30.0262 25.8668 31.2512 26.0531C32.4762 26.2395 33.5884 26.8741 34.3721 27.8339C35.1557 28.7937 35.5551 30.0103 35.4928 31.2478C35.4305 32.4853 34.9108 33.6556 34.0347 34.5318C33.1585 35.408 31.9882 35.9276 30.7507 35.9899C29.5132 36.0523 28.2966 35.6529 27.3368 34.8692C26.377 34.0855 25.7424 32.9734 25.556 31.7484C25.3696 30.5234 25.6447 29.2728 26.328 28.2391L22.258 24.1691C21.4398 24.7096 20.4806 24.9976 19.5 24.9971C18.48 24.9971 17.534 24.6931 16.742 24.1691L12.672 28.2391C13.3553 29.2728 13.6304 30.5234 13.444 31.7484C13.2576 32.9734 12.623 34.0855 11.6632 34.8692C10.7034 35.6529 9.48685 36.0523 8.24933 35.9899C7.01181 35.9276 5.84152 35.408 4.96535 34.5318C4.08918 33.6556 3.56955 32.4853 3.50721 31.2478C3.44488 30.0103 3.84426 28.7937 4.62795 27.8339C5.41163 26.8741 6.52378 26.2395 7.74877 26.0531C8.97376 25.8668 10.2243 26.1419 11.258 26.8251L15.328 22.7551C14.7879 21.9375 14.5 20.9791 14.5 19.9991C14.5 18.9791 14.804 18.0331 15.328 17.2411L11.26 13.1711C10.3314 13.7859 9.22414 14.073 8.11382 13.987C7.00351 13.901 5.95368 13.4467 5.13083 12.6963C4.30798 11.9459 3.7592 10.9423 3.57152 9.84454C3.38384 8.74682 3.56801 7.61787 4.09481 6.6367C4.62161 5.65553 5.46089 4.87832 6.47956 4.42831C7.49824 3.9783 8.63799 3.88125 9.71808 4.15255C10.7982 4.42385 11.7568 5.04797 12.4419 5.92595C13.127 6.80392 13.4994 7.88548 13.5 8.99913Z" fill="#0150AC"/>
</svg>
