<svg width="40" height="40" viewBox="0 0 40 40" fill="none" xmlns="http://www.w3.org/2000/svg">
<path d="M13.2815 16.4773H26.7148M13.2815 23.524H22.8615M19.9981 35.4173C23.3471 35.4166 26.6048 34.3254 29.2785 32.3087C31.9521 30.292 33.8964 27.4595 34.8173 24.2396C35.7381 21.0197 35.5854 17.5876 34.3823 14.4622C33.1791 11.3368 30.991 8.68813 28.1488 6.91684C25.3066 5.14555 21.9649 4.34793 18.629 4.64462C15.2932 4.9413 12.1448 6.31615 9.65976 8.56124C7.17476 10.8063 5.48841 13.7996 4.85574 17.0882C4.22307 20.3769 4.67849 23.7822 6.15313 26.789C6.33313 27.1557 6.39313 27.569 6.30146 27.9657L4.94146 33.859C4.90312 34.0244 4.90752 34.1968 4.95424 34.36C5.00096 34.5233 5.08847 34.6719 5.20852 34.7919C5.32857 34.912 5.4772 34.9995 5.64042 35.0462C5.80364 35.0929 5.97607 35.0973 6.14146 35.059L12.0331 33.6973C12.4309 33.6102 12.8466 33.6632 13.2098 33.8473C15.3221 34.8847 17.6449 35.4219 19.9981 35.4173Z" stroke="white" stroke-width="3.75" stroke-linecap="round" stroke-linejoin="round"/>
</svg>
