<?xml version="1.0" encoding="UTF-8"?>
<svg version="1.1" xmlns="http://www.w3.org/2000/svg" width="500" height="500">
<path d="M0 0 C0.81594635 -0.00570007 1.6318927 -0.01140015 2.4725647 -0.01727295 C4.20939837 -0.0267461 5.94625021 -0.03326607 7.68310547 -0.03710938 C10.30599999 -0.04670826 12.92807451 -0.07766269 15.55078125 -0.109375 C28.38693162 -0.19186737 39.78859835 0.4705843 49.9765625 9.203125 C55.19142732 14.6347446 56.94160627 20.80520279 57.2890625 28.203125 C57.05764393 35.57959177 53.96768454 40.96244686 48.9765625 46.203125 C47.9865625 46.863125 46.9965625 47.523125 45.9765625 48.203125 C47.0284375 48.821875 48.0803125 49.440625 49.1640625 50.078125 C53.88537271 53.49435759 56.21606139 57.70253708 57.9765625 63.203125 C59.23471456 71.72261179 57.53601244 79.28867214 52.8515625 86.453125 C43.49179223 95.40594874 33.4550874 96.51164782 21.0390625 96.328125 C19.87826172 96.31910156 18.71746094 96.31007813 17.52148438 96.30078125 C14.67308755 96.27733765 11.82479769 96.24147072 8.9765625 96.203125 C8.9765625 90.263125 8.9765625 84.323125 8.9765625 78.203125 C11.02037109 78.14705078 11.02037109 78.14705078 13.10546875 78.08984375 C14.91669271 78.02415169 16.72788943 77.95770548 18.5390625 77.890625 C19.43431641 77.86806641 20.32957031 77.84550781 21.25195312 77.82226562 C26.86205938 77.59621739 31.00075558 76.85292391 35.9765625 74.203125 C38.23631506 71.56674702 37.97503007 70.15945071 37.8515625 66.640625 C37.28557625 63.19287213 37.28557625 63.19287213 35.1015625 61.328125 C30.53825186 58.91225466 26.1901821 58.98723868 21.15234375 58.88671875 C19.86024239 58.8555471 19.86024239 58.8555471 18.54203796 58.82374573 C15.79112706 58.75837591 13.04012094 58.69942368 10.2890625 58.640625 C8.42381829 58.59742783 6.5585837 58.55381315 4.69335938 58.50976562 C0.12119126 58.40270737 -4.4510726 58.30140446 -9.0234375 58.203125 C-9.04656633 50.78852558 -9.06435535 43.37393389 -9.07524967 35.95930576 C-9.08047732 32.51672152 -9.08757281 29.07416188 -9.09887695 25.6315918 C-9.11177985 21.67757457 -9.11666668 17.72356744 -9.12109375 13.76953125 C-9.12625504 12.52788712 -9.13141632 11.28624298 -9.13673401 10.00697327 C-9.13680954 8.86586594 -9.13688507 7.72475861 -9.13696289 6.54907227 C-9.1391835 5.538694 -9.14140411 4.52831573 -9.14369202 3.48731995 C-8.87676546 -1.58286214 -3.98248485 0.02138261 0 0 Z M9.9765625 18.203125 C9.9765625 25.133125 9.9765625 32.063125 9.9765625 39.203125 C13.9675 39.2959375 13.9675 39.2959375 18.0390625 39.390625 C18.862854 39.41793701 19.68664551 39.44524902 20.53540039 39.47338867 C26.47521364 39.53953675 30.96481417 38.41174044 35.8515625 34.828125 C37.44060575 32.5328403 37.84626606 31.0044984 37.9765625 28.203125 C36.40837143 24.07630638 34.83164815 21.42271977 30.9765625 19.203125 C28.21060869 18.36374387 25.75080554 18.08362316 22.8671875 18.10546875 C21.8467334 18.10921509 21.8467334 18.10921509 20.80566406 18.11303711 C19.95456055 18.12214111 19.10345703 18.13124512 18.2265625 18.140625 C15.5040625 18.16125 12.7815625 18.181875 9.9765625 18.203125 Z " fill="#175FB9" transform="translate(91.0234375,184.796875)"/>
<path d="M0 0 C0.83339905 -0.00807175 1.6667981 -0.01614349 2.52545166 -0.02445984 C4.30096341 -0.03833135 6.07650218 -0.04903969 7.85205078 -0.05688477 C10.52561287 -0.07388485 13.19786778 -0.11771269 15.87109375 -0.16210938 C27.53948611 -0.26915759 38.71628163 0.01319692 48.390625 7.42578125 C54.08269606 13.06981796 56.36028431 19.79067389 56.86328125 27.69140625 C56.75360482 35.63685412 54.94687349 43.16753682 49.15234375 48.89453125 C46.16373739 51.50556207 43.00269056 53.85981926 39.828125 56.23828125 C40.16545654 56.93800049 40.50278809 57.63771973 40.8503418 58.35864258 C42.40668569 61.58875511 43.96116405 64.81976218 45.515625 68.05078125 C46.04607422 69.15099609 46.57652344 70.25121094 47.12304688 71.38476562 C48.70031587 74.66509808 50.26595715 77.95073399 51.828125 81.23828125 C52.32650879 82.27388184 52.82489258 83.30948242 53.33837891 84.37646484 C53.79519043 85.34535645 54.25200195 86.31424805 54.72265625 87.3125 C55.1297583 88.16803467 55.53686035 89.02356934 55.95629883 89.9050293 C56.828125 92.23828125 56.828125 92.23828125 56.828125 96.23828125 C50.228125 96.23828125 43.628125 96.23828125 36.828125 96.23828125 C34.40348693 91.14959757 31.98121458 86.05992653 29.56494141 80.96728516 C28.74178455 79.23420362 27.91724443 77.50177841 27.09130859 75.77001953 C25.90620803 73.28458053 24.72605839 70.79684443 23.546875 68.30859375 C22.98909363 67.14289352 22.98909363 67.14289352 22.42004395 65.9536438 C19.828125 60.46602466 19.828125 60.46602466 19.828125 58.23828125 C16.528125 58.23828125 13.228125 58.23828125 9.828125 58.23828125 C9.828125 70.77828125 9.828125 83.31828125 9.828125 96.23828125 C3.558125 96.23828125 -2.711875 96.23828125 -9.171875 96.23828125 C-9.19443106 88.95406148 -9.21279301 81.66986066 -9.22368717 74.38561344 C-9.22891475 71.00356312 -9.23601011 67.62153785 -9.24731445 64.23950195 C-9.26021767 60.35498348 -9.26510424 56.47047528 -9.26953125 52.5859375 C-9.27469254 51.36616714 -9.27985382 50.14639679 -9.28517151 48.8896637 C-9.28524704 47.76857712 -9.28532257 46.64749054 -9.28540039 45.49243164 C-9.287621 44.49981827 -9.28984161 43.5072049 -9.29212952 42.48451233 C-9.171875 40.23828125 -9.171875 40.23828125 -8.171875 39.23828125 C-5.42046356 39.11508942 -2.69028861 39.05214642 0.0625 39.02734375 C1.76823859 38.99926447 3.47396762 38.97059994 5.1796875 38.94140625 C7.87662381 38.90020169 10.57338384 38.86332768 13.27050781 38.83691406 C15.86821713 38.80924841 18.46510757 38.76336412 21.0625 38.71484375 C21.86476013 38.71159088 22.66702026 38.70833801 23.49359131 38.70498657 C28.0725335 38.60480356 31.10128467 38.18922341 34.828125 35.23828125 C36.42582111 32.04288902 36.19363872 28.71410985 35.828125 25.23828125 C34.92576665 22.75722931 34.92576665 22.75722931 32.828125 21.23828125 C27.63159462 19.4350275 22.96191977 18.91089619 17.48828125 18.82421875 C16.72132431 18.8048526 15.95436737 18.78548645 15.16416931 18.76553345 C12.73976394 18.70625567 10.31530972 18.65956214 7.890625 18.61328125 C6.23630862 18.57505363 4.58201113 18.53599919 2.92773438 18.49609375 C-1.10531344 18.40059762 -5.13845427 18.31637818 -9.171875 18.23828125 C-9.19871812 15.42571844 -9.21863688 12.61340884 -9.234375 9.80078125 C-9.24275391 8.99833984 -9.25113281 8.19589844 -9.25976562 7.36914062 C-9.2683893 5.32532904 -9.2241565 3.28144223 -9.171875 1.23828125 C-7.11814807 -0.81544568 -2.82577253 0.0258616 0 0 Z " fill="#175FB9" transform="translate(220.171875,184.76171875)"/>
<path d="M0 0 C79.53 0 159.06 0 241 0 C241 4.95 241 9.9 241 15 C161.47 15 81.94 15 0 15 C0 10.05 0 5.1 0 0 Z " fill="#F6812C" transform="translate(101,287)"/>
<path d="M0 0 C15.18 0 30.36 0 46 0 C46 5.94 46 11.88 46 18 C37.09 18 28.18 18 19 18 C19 24.93 19 31.86 19 39 C31.54 39 44.08 39 57 39 C58.17794853 42.53384559 58.13264317 45.40277553 58.125 49.125 C58.12886719 51.01605469 58.12886719 51.01605469 58.1328125 52.9453125 C58 56 58 56 57 57 C54.1883662 57.08861992 51.40141745 57.11522355 48.58984375 57.09765625 C47.74780899 57.0962413 46.90577423 57.09482635 46.03822327 57.09336853 C43.33794665 57.08775263 40.63775172 57.07519748 37.9375 57.0625 C36.11132932 57.05748705 34.28515734 57.05292379 32.45898438 57.04882812 C27.97259915 57.03862716 23.48639145 57.01905499 19 57 C19 63.93 19 70.86 19 78 C27.91 78 36.82 78 46 78 C46 83.94 46 89.88 46 96 C30.82 96 15.64 96 0 96 C0 64.32 0 32.64 0 0 Z " fill="#185FB9" transform="translate(152,185)"/>
<path d="M0 0 C3 1 3 1 4.08056641 2.89379883 C4.58595947 4.16259888 4.58595947 4.16259888 5.1015625 5.45703125 C5.70037231 6.93985596 5.70037231 6.93985596 6.3112793 8.45263672 C6.74480713 9.5613916 7.17833496 10.67014648 7.625 11.8125 C8.32266479 13.56071045 8.32266479 13.56071045 9.03442383 15.34423828 C10.71029333 19.55479242 12.35617761 23.77685096 14 28 C14.33010071 28.84701477 14.66020142 29.69402954 15.00030518 30.56671143 C19.67328907 42.56174761 24.31884178 54.56736814 28.92333984 66.58886719 C30.37156691 70.36967141 31.83231927 74.14538633 33.29931641 77.91894531 C34.03947491 79.83395079 34.77954925 81.74898881 35.51953125 83.6640625 C35.86900314 84.55701019 36.21847504 85.44995789 36.57853699 86.3699646 C36.89655777 87.19614288 37.21457855 88.02232117 37.54223633 88.87353516 C37.96561028 89.96319077 37.96561028 89.96319077 38.39753723 91.07485962 C39 93 39 93 39 96 C32.73 96 26.46 96 20 96 C15.57040079 85.76695973 11.88851606 75.34670565 8.25 64.8125 C7.36852702 62.26353791 6.48595546 59.71498392 5.59979248 57.16764832 C5.05275267 55.59498391 4.50842595 54.02137258 3.96710205 52.44673157 C2.95994646 48.95308134 2.95994646 48.95308134 1 46 C0.68386497 46.89535965 0.68386497 46.89535965 0.36134338 47.80880737 C-1.82696447 54.00573906 -4.01707698 60.20203075 -6.20825195 66.39794922 C-7.0264265 68.71223758 -7.84413638 71.02669026 -8.66137695 73.34130859 C-9.83423506 76.66286552 -11.00874766 79.9838333 -12.18359375 83.3046875 C-12.55028671 84.34430634 -12.91697968 85.38392517 -13.29478455 86.45504761 C-13.6350618 87.41589264 -13.97533905 88.37673767 -14.32592773 89.36669922 C-14.77560158 90.63910965 -14.77560158 90.63910965 -15.23435974 91.93722534 C-16 94 -16 94 -17 96 C-23.6 96 -30.2 96 -37 96 C-34.33409138 86.26449667 -30.5792834 76.9995978 -26.875 67.625 C-25.44216557 63.98249472 -24.01209769 60.33890525 -22.58203125 56.6953125 C-22.21204514 55.75371277 -21.84205902 54.81211304 -21.46086121 53.84197998 C-18.67981077 46.75659711 -15.93211024 39.65877236 -13.19921875 32.5546875 C-12.80921692 31.54145416 -12.41921509 30.52822083 -12.01739502 29.48428345 C-10.48583233 25.50402231 -8.95483887 21.52355239 -7.42840576 17.5413208 C-6.37249948 14.78708906 -5.31347315 12.03407511 -4.25390625 9.28125 C-3.93798019 8.45406464 -3.62205414 7.62687927 -3.29655457 6.77462769 C-1.11351797 1.11351797 -1.11351797 1.11351797 0 0 Z " fill="#175FB9" transform="translate(377,185)"/>
<path d="M0 0 C6.27 0 12.54 0 19 0 C19 20.13 19 40.26 19 61 C12.73 61 6.46 61 0 61 C0 40.87 0 20.74 0 0 Z " fill="#145FBC" transform="translate(300,220)"/>
<path d="M0 0 C1.01037827 0.00222061 2.02075653 0.00444122 3.06175232 0.00672913 C4.77341331 0.00684242 4.77341331 0.00684242 6.51965332 0.00695801 C7.76129745 0.01211929 9.00294159 0.01728058 10.2822113 0.02259827 C12.17785072 0.02472069 12.17785072 0.02472069 14.11178589 0.02688599 C17.47705394 0.0315487 20.84225495 0.04053972 24.20750427 0.05158997 C27.63930175 0.06180606 31.07110614 0.06638403 34.50291443 0.07142639 C41.24056569 0.08248072 47.97817616 0.09975815 54.71580505 0.12025452 C54.71580505 5.73025452 54.71580505 11.34025452 54.71580505 17.12025452 C35.57580505 17.12025452 16.43580505 17.12025452 -3.28419495 17.12025452 C-3.28419495 0.17290086 -3.28419495 0.17290086 0 0 Z " fill="#1960B7" transform="translate(283.28419494628906,184.87974548339844)"/>
<path d="M0 0 C0.83339905 -0.00807175 1.6667981 -0.01614349 2.52545166 -0.02445984 C4.30096341 -0.03833135 6.07650218 -0.04903969 7.85205078 -0.05688477 C10.52561287 -0.07388485 13.19786778 -0.11771269 15.87109375 -0.16210938 C28.88902637 -0.28222642 40.71594308 0.21065529 50.53515625 9.84765625 C51.17517578 10.53601563 51.17517578 10.53601563 51.828125 11.23828125 C51.498125 11.89828125 51.168125 12.55828125 50.828125 13.23828125 C49.838125 12.90828125 48.848125 12.57828125 47.828125 12.23828125 C47.16145833 10.90494792 46.49479167 9.57161458 45.828125 8.23828125 C44.838125 7.90828125 43.848125 7.57828125 42.828125 7.23828125 C42.828125 6.57828125 42.828125 5.91828125 42.828125 5.23828125 C41.920625 5.27953125 41.013125 5.32078125 40.078125 5.36328125 C36.828125 5.23828125 36.828125 5.23828125 34.88287354 4.25039673 C32.63357941 3.14245317 31.19118484 2.96669378 28.70214844 2.91943359 C27.50135651 2.88962906 27.50135651 2.88962906 26.27630615 2.85922241 C25.42200012 2.8476712 24.56769409 2.83612 23.6875 2.82421875 C22.80531799 2.8048526 21.92313599 2.78548645 21.01422119 2.76553345 C18.20228684 2.70585277 15.3903113 2.65939842 12.578125 2.61328125 C10.66925319 2.57509087 8.76039841 2.53603852 6.8515625 2.49609375 C2.17722204 2.40016067 -2.49719909 2.31608709 -7.171875 2.23828125 C-7.171875 6.85828125 -7.171875 11.47828125 -7.171875 16.23828125 C3.388125 16.23828125 13.948125 16.23828125 24.828125 16.23828125 C25.323125 17.22828125 25.323125 17.22828125 25.828125 18.23828125 C14.278125 18.23828125 2.728125 18.23828125 -9.171875 18.23828125 C-9.171875 0.08394144 -9.171875 0.08394144 0 0 Z " fill="#275DA3" transform="translate(220.171875,184.76171875)"/>
<path d="M0 0 C6.27 0 12.54 0 19 0 C19 20.13 19 40.26 19 61 C12.73 61 6.46 61 0 61 C0 40.87 0 20.74 0 0 Z M1 1 C1 20.47 1 39.94 1 60 C11.74689927 60.48507125 11.74689927 60.48507125 17 59 C17 39.86 17 20.72 17 1 C11.72 1 6.44 1 1 1 Z " fill="#275DA2" transform="translate(300,220)"/>
<path d="M0 0 C3 1 3 1 4.421875 3.65234375 C4.86015625 4.73644531 5.2984375 5.82054687 5.75 6.9375 C6.19859375 8.01902344 6.6471875 9.10054687 7.109375 10.21484375 C8 13 8 13 7 15 C2.25 14.25 2.25 14.25 0 12 C-0.96239452 13.24687592 -1.91974009 14.49764969 -2.875 15.75 C-3.40867187 16.44609375 -3.94234375 17.1421875 -4.4921875 17.859375 C-5.89238914 19.84722603 -6.97855265 21.79843386 -8 24 C-9 22 -9 22 -8.39501953 19.86108398 C-8.06099121 18.99813721 -7.72696289 18.13519043 -7.3828125 17.24609375 C-7.02316406 16.30958984 -6.66351563 15.37308594 -6.29296875 14.40820312 C-5.90753906 13.42787109 -5.52210938 12.44753906 -5.125 11.4375 C-4.74730469 10.45330078 -4.36960937 9.46910156 -3.98046875 8.45507812 C-1.15175056 1.15175056 -1.15175056 1.15175056 0 0 Z " fill="#1C5DB3" transform="translate(377,185)"/>
<path d="M0 0 C0.33 0.66 0.66 1.32 1 2 C-0.32 2 -1.64 2 -3 2 C-3 2.66 -3 3.32 -3 4 C-9.6 4 -16.2 4 -23 4 C-22.67 8.62 -22.34 13.24 -22 18 C-13.42 18 -4.84 18 4 18 C4 17.34 4 16.68 4 16 C6.64 15.67 9.28 15.34 12 15 C11 17 11 17 9.17626953 17.8449707 C1.98945501 20.12812286 -4.62531928 20.3575509 -12.125 20.1875 C-13.27226563 20.17396484 -14.41953125 20.16042969 -15.6015625 20.14648438 C-18.40124874 20.1114883 -21.20068955 20.05769571 -24 20 C-24 14.06 -24 8.12 -24 2 C-22.60265625 1.93941406 -21.2053125 1.87882812 -19.765625 1.81640625 C-17.92707358 1.73198297 -16.08853243 1.64733586 -14.25 1.5625 C-12.86941406 1.50352539 -12.86941406 1.50352539 -11.4609375 1.44335938 C-10.57148437 1.40146484 -9.68203125 1.35957031 -8.765625 1.31640625 C-7.94868164 1.27974854 -7.13173828 1.24309082 -6.29003906 1.20532227 C-4.0965577 1.00865725 -2.11603587 0.59699406 0 0 Z " fill="#275DA3" transform="translate(124,261)"/>
<path d="M0 0 C1.03789581 1.64333504 2.03567924 3.31243867 3 5 C3.66 5.66 4.32 6.32 5 7 C4.34 7.66 3.68 8.32 3 9 C3.3185177 11.10820797 3.3185177 11.10820797 4 13 C0.79937313 14.60031344 -1.72271806 13.03173691 -5 12 C-5.36666667 4.66666667 -5.36666667 4.66666667 -3.625 1.5 C-2 0 -2 0 0 0 Z " fill="#145EBF" transform="translate(409,266)"/>
<path d="M0 0 C3.40587593 2.9414383 4.78073821 6.12061319 5.30078125 10.578125 C5.33509329 18.401271 4.45020719 25.20381503 -0.5 31.5 C-3 34 -3 34 -6 35 C-6 33.68 -6 32.36 -6 31 C-5.34 31 -4.68 31 -4 31 C-3.67 29.68 -3.34 28.36 -3 27 C-1.68 27 -0.36 27 1 27 C1.99642964 22.83890984 2.16583096 18.89813527 2.1875 14.625 C2.20876953 12.72621094 2.20876953 12.72621094 2.23046875 10.7890625 C1.98885461 6.81676225 1.22893265 3.75965958 0 0 Z " fill="#255EA5" transform="translate(144,240)"/>
<path d="M0 0 C1.68327032 4.05413647 0.14010774 7.29660074 -1.30859375 11.171875 C-1.55416519 11.8542926 -1.79973663 12.53671021 -2.05274963 13.23980713 C-2.83763602 15.41366429 -3.63731248 17.58173443 -4.4375 19.75 C-4.9729899 21.22490328 -5.50750676 22.70016023 -6.04101562 24.17578125 C-7.34943109 27.78805161 -8.67113514 31.39520496 -10 35 C-10.33 35 -10.66 35 -11 35 C-11.30433313 29.82633685 -10.76288101 27.31009437 -8 23 C-7.28598768 19.80604974 -7.28598768 19.80604974 -7 17 C-6.34 17 -5.68 17 -5 17 C-5.33 14.36 -5.66 11.72 -6 9 C-5.071875 8.7215625 -5.071875 8.7215625 -4.125 8.4375 C-0.94397134 6.28562767 -0.80548053 3.62466237 0 0 Z " fill="#275A9D" transform="translate(376,230)"/>
<path d="M0 0 C1.67739258 0.07250977 1.67739258 0.07250977 3.38867188 0.14648438 C5.13954102 0.2305957 5.13954102 0.2305957 6.92578125 0.31640625 C8.69405273 0.3947168 8.69405273 0.3947168 10.49804688 0.47460938 C13.41172219 0.60436819 16.32506203 0.73933757 19.23828125 0.87890625 C19.23828125 1.20890625 19.23828125 1.53890625 19.23828125 1.87890625 C18.48619385 1.9039624 17.73410645 1.92901855 16.95922852 1.95483398 C13.57288929 2.07041139 10.18685512 2.1933097 6.80078125 2.31640625 C5.02477539 2.37538086 5.02477539 2.37538086 3.21289062 2.43554688 C2.08818359 2.47744141 0.96347656 2.51933594 -0.1953125 2.5625 C-1.23743896 2.59915771 -2.27956543 2.63581543 -3.35327148 2.67358398 C-5.71170135 2.61405966 -5.71170135 2.61405966 -6.76171875 3.87890625 C-6.91826902 5.36529617 -7.01238818 6.85839752 -7.078125 8.3515625 C-7.12001953 9.25068359 -7.16191406 10.14980469 -7.20507812 11.07617188 C-7.24439453 12.02169922 -7.28371094 12.96722656 -7.32421875 13.94140625 C-7.36740234 14.89080078 -7.41058594 15.84019531 -7.45507812 16.81835938 C-7.56151151 19.17171978 -7.66352883 21.52518979 -7.76171875 23.87890625 C-8.09171875 23.87890625 -8.42171875 23.87890625 -8.76171875 23.87890625 C-8.76171875 16.28890625 -8.76171875 8.69890625 -8.76171875 0.87890625 C-5.51373132 -0.20375623 -3.40275048 -0.15545561 0 0 Z " fill="#205EAF" transform="translate(177.76171875,200.12109375)"/>
<path d="M0 0 C1.15233929 3.81964212 0.48956382 5.31990114 -1 9 C-0.938125 9.928125 -0.87625 10.85625 -0.8125 11.8125 C-1.07635214 16.29798636 -3.1334511 19.57751435 -6 23 C-6.66 23 -7.32 23 -8 23 C-5.81659819 15.13620323 -3.00714974 7.58324716 0 0 Z " fill="#205EA8" transform="translate(367,209)"/>
<path d="M0 0 C0.66 0.33 1.32 0.66 2 1 C2.33 1.99 2.66 2.98 3 4 C2.67 4.66 2.34 5.32 2 6 C2.99 6.33 3.98 6.66 5 7 C4.01 7.495 4.01 7.495 3 8 C3.33 10.97 3.66 13.94 4 17 C1.50063756 14.50063756 0.96276247 12.35191992 -0.125 9 C-0.47820312 7.9275 -0.83140625 6.855 -1.1953125 5.75 C-2 3 -2 3 -2 1 C-1.34 0.67 -0.68 0.34 0 0 Z " fill="#215EAE" transform="translate(386,243)"/>
<path d="M0 0 C-2.57784846 2.64752004 -4.91648098 4.94432065 -8 7 C-8 6.34 -8 5.68 -8 5 C-8.99 5 -9.98 5 -11 5 C-11 4.34 -11 3.68 -11 3 C-10.34 3 -9.68 3 -9 3 C-8.67 2.01 -8.34 1.02 -8 0 C-4.71303767 -0.79953138 -3.28976808 -1.09658936 0 0 Z " fill="#1D5FAE" transform="translate(143,227)"/>
<path d="M0 0 C4.7467544 3.16450293 7.08843286 6.72491034 9 12 C9.25 15 9.25 15 9 17 C8.34 17 7.68 17 7 17 C6.87044922 16.09507812 6.87044922 16.09507812 6.73828125 15.171875 C5.75277227 9.56622759 4.76990371 7.38914211 0 4 C0 2.68 0 1.36 0 0 Z " fill="#275EA1" transform="translate(138,192)"/>
<path d="M0 0 C2.96659857 3.55991828 5.381348 7.65222543 7 12 C6.67 12.66 6.34 13.32 6 14 C4.0625 13.375 4.0625 13.375 2 12 C1.25 8.875 1.25 8.875 1 6 C0.67 6 0.34 6 0 6 C0 4.02 0 2.04 0 0 Z " fill="#245FA7" transform="translate(259,241)"/>
<path d="M0 0 C2.5654594 2.5654594 2.54046087 4.47686668 3 8 C0.69 8 -1.62 8 -4 8 C-4 7.01 -4 6.02 -4 5 C-3.01 5 -2.02 5 -1 5 C-1.33 3.68 -1.66 2.36 -2 1 C-1.34 0.67 -0.68 0.34 0 0 Z " fill="#215EA6" transform="translate(413,273)"/>
<path d="M0 0 C0.99 0.33 1.98 0.66 3 1 C2.67 1.66 2.34 2.32 2 3 C1.34 2.67 0.68 2.34 0 2 C0 4.31 0 6.62 0 9 C-0.66 9 -1.32 9 -2 9 C-2 9.99 -2 10.98 -2 12 C-2.66 12 -3.32 12 -4 12 C-4.33 12.66 -4.66 13.32 -5 14 C-4.34580901 8.93001981 -2.1453591 4.58009223 0 0 Z " fill="#275DA1" transform="translate(377,185)"/>
<path d="M0 0 C1.12377697 3.30435084 0.89554742 5.0506862 -0.4375 8.25 C-0.72496094 8.95640625 -1.01242187 9.6628125 -1.30859375 10.390625 C-1.53675781 10.92171875 -1.76492188 11.4528125 -2 12 C-2.66 12 -3.32 12 -4 12 C-4.33 12.66 -4.66 13.32 -5 14 C-5.33 12.35 -5.66 10.7 -6 9 C-5.38125 8.814375 -4.7625 8.62875 -4.125 8.4375 C-0.94397134 6.28562767 -0.80548053 3.62466237 0 0 Z " fill="#215DA6" transform="translate(376,230)"/>
<path d="M0 0 C4.98012761 1.50912958 8.24259942 4.55661849 12 8 C11.67 8.66 11.34 9.32 11 10 C10.01 9.67 9.02 9.34 8 9 C7.33333333 7.66666667 6.66666667 6.33333333 6 5 C5.01 4.67 4.02 4.34 3 4 C3 3.34 3 2.68 3 2 C2.01 2 1.02 2 0 2 C0 1.34 0 0.68 0 0 Z " fill="#295AA0" transform="translate(260,188)"/>
<path d="M0 0 C2.6855594 2.6855594 3.06049974 5.37621328 4 9 C2.35 8.67 0.7 8.34 -1 8 C-2.2077558 4.37673261 -1.54311128 3.35853631 0 0 Z " fill="#215CAB" transform="translate(270,264)"/>
<path d="M0 0 C2.18975773 3.28463659 2.99806563 6.20696275 4 10 C3.34 9.67 2.68 9.34 2 9 C2 8.34 2 7.68 2 7 C1.01 7 0.02 7 -1 7 C-0.67 4.69 -0.34 2.38 0 0 Z " fill="#215DA6" transform="translate(381,190)"/>
<path d="M0 0 C0.33 0 0.66 0 1 0 C0.67 3.3 0.34 6.6 0 10 C-0.99 10 -1.98 10 -3 10 C-2.01 6.7 -1.02 3.4 0 0 Z " fill="#2C599A" transform="translate(343,271)"/>
<path d="M0 0 C1.485 0.99 1.485 0.99 3 2 C3 2.99 3 3.98 3 5 C4.32 5.66 5.64 6.32 7 7 C5.68 7.33 4.36 7.66 3 8 C0 2.25 0 2.25 0 0 Z " fill="#295C9F" transform="translate(254,273)"/>
<path d="M0 0 C3.11743833 1.55871917 3.76044988 3.83914719 5 7 C4.34 8.32 3.68 9.64 3 11 C2.01 7.37 1.02 3.74 0 0 Z " fill="#275BA1" transform="translate(390,261)"/>
</svg>
