<svg width="18" height="18" viewBox="0 0 18 18" fill="none" xmlns="http://www.w3.org/2000/svg">
<path fill-rule="evenodd" clip-rule="evenodd" d="M8.915 0H9.00167C9.75083 0 10.375 3.72529e-08 10.87 0.0666667C11.3933 0.136667 11.8658 0.291667 12.245 0.670833C12.625 1.05083 12.78 1.52333 12.85 2.04583C12.9 2.4125 12.9125 2.84917 12.9158 3.35417C13.4558 3.37167 13.9375 3.40417 14.3658 3.46083C15.3425 3.5925 16.1333 3.86917 16.7575 4.4925C17.3808 5.11667 17.6575 5.9075 17.7892 6.88417C17.9167 7.83417 17.9167 9.04667 17.9167 10.5783V10.6717C17.9167 12.2033 17.9167 13.4167 17.7892 14.3658C17.6575 15.3425 17.3808 16.1333 16.7575 16.7575C16.1333 17.3808 15.3425 17.6575 14.3658 17.7892C13.4158 17.9167 12.2033 17.9167 10.6717 17.9167H7.245C5.71333 17.9167 4.5 17.9167 3.55083 17.7892C2.57417 17.6575 1.78333 17.3808 1.15917 16.7575C0.535833 16.1333 0.259167 15.3425 0.1275 14.3658C0 13.4158 0 12.2033 0 10.6717V10.5783C0 9.04667 0 7.83333 0.1275 6.88417C0.259167 5.9075 0.535833 5.11667 1.15917 4.4925C1.78333 3.86917 2.57417 3.5925 3.55083 3.46083C4.03216 3.40186 4.51606 3.36626 5.00083 3.35417C5.00417 2.84917 5.0175 2.4125 5.06667 2.04583C5.13667 1.52333 5.29167 1.05083 5.67083 0.670833C6.05083 0.291667 6.52333 0.1375 7.04583 0.0666667C7.54167 3.72529e-08 8.16667 0 8.915 0ZM6.25167 3.335C6.56667 3.33333 6.89778 3.33278 7.245 3.33333H10.6717C11.0189 3.33333 11.35 3.33389 11.665 3.335C11.6617 2.86 11.65 2.50167 11.6117 2.2125C11.5592 1.82833 11.47 1.66333 11.3617 1.555C11.2533 1.44667 11.0883 1.3575 10.7033 1.305C10.3017 1.25167 9.76167 1.25 8.95833 1.25C8.155 1.25 7.615 1.25167 7.2125 1.30583C6.82833 1.3575 6.66333 1.44667 6.555 1.55583C6.44667 1.665 6.3575 1.82833 6.305 2.2125C6.26667 2.50083 6.255 2.85917 6.25167 3.335ZM3.71667 4.7C2.87833 4.8125 2.395 5.02417 2.04167 5.37667C1.69 5.72917 1.47833 6.2125 1.36583 7.05083C1.25083 7.90667 1.24917 9.03583 1.24917 10.625C1.24917 12.2142 1.25083 13.3433 1.36583 14.2C1.47833 15.0375 1.69 15.5208 2.0425 15.8733C2.395 16.2258 2.87833 16.4375 3.71667 16.55C4.57333 16.665 5.70167 16.6667 7.29083 16.6667H10.6242C12.2133 16.6667 13.3425 16.665 14.1992 16.55C15.0367 16.4375 15.52 16.2258 15.8725 15.8733C16.225 15.5208 16.4367 15.0375 16.5492 14.1992C16.6642 13.3433 16.6658 12.2142 16.6658 10.625C16.6658 9.03583 16.6642 7.9075 16.5492 7.05C16.4367 6.2125 16.225 5.72917 15.8725 5.37667C15.52 5.02417 15.0367 4.8125 14.1983 4.7C13.3425 4.585 12.2133 4.58333 10.6242 4.58333H7.29083C5.70167 4.58333 4.57417 4.585 3.71667 4.7ZM8.95833 6.66667C9.12409 6.66667 9.28306 6.73252 9.40028 6.84973C9.51749 6.96694 9.58333 7.12591 9.58333 7.29167V7.3C10.4908 7.52833 11.25 8.24417 11.25 9.23583C11.25 9.40159 11.1842 9.56056 11.0669 9.67778C10.9497 9.79499 10.7908 9.86083 10.625 9.86083C10.4592 9.86083 10.3003 9.79499 10.1831 9.67778C10.0658 9.56056 10 9.40159 10 9.23583C10 8.91583 9.645 8.4725 8.95833 8.4725C8.27167 8.4725 7.91667 8.91583 7.91667 9.23583C7.91667 9.55583 8.27167 10 8.95833 10C10.1125 10 11.25 10.8 11.25 12.0142C11.25 13.0058 10.4908 13.7208 9.58333 13.95V13.9583C9.58333 14.1241 9.51749 14.2831 9.40028 14.4003C9.28306 14.5175 9.12409 14.5833 8.95833 14.5833C8.79257 14.5833 8.6336 14.5175 8.51639 14.4003C8.39918 14.2831 8.33333 14.1241 8.33333 13.9583V13.95C7.42583 13.7217 6.66667 13.0058 6.66667 12.0142C6.66667 11.8484 6.73252 11.6894 6.84973 11.5722C6.96694 11.455 7.12591 11.3892 7.29167 11.3892C7.45743 11.3892 7.6164 11.455 7.73361 11.5722C7.85082 11.6894 7.91667 11.8484 7.91667 12.0142C7.91667 12.3342 8.27167 12.7775 8.95833 12.7775C9.645 12.7775 10 12.3342 10 12.0142C10 11.6942 9.645 11.25 8.95833 11.25C7.80417 11.25 6.66667 10.45 6.66667 9.23583C6.66667 8.24417 7.42583 7.52833 8.33333 7.3V7.29167C8.33333 7.12591 8.39918 6.96694 8.51639 6.84973C8.6336 6.73252 8.79257 6.66667 8.95833 6.66667Z" fill="#4C4C4C"/>
</svg>
