<svg width="30" height="30" viewBox="0 0 30 30" fill="none" xmlns="http://www.w3.org/2000/svg">
<path d="M15 27.5C21.9036 27.5 27.5 21.9036 27.5 15C27.5 8.09644 21.9036 2.5 15 2.5C8.09644 2.5 2.5 8.09644 2.5 15C2.5 21.9036 8.09644 27.5 15 27.5Z" stroke="white" stroke-width="1.25"/>
<path d="M10.1619 14.4979L15.1607 7.7604C15.5519 7.2329 16.2844 7.5604 16.2844 8.2629V13.4779C16.2844 13.8979 16.5719 14.2392 16.9269 14.2392H19.3569C19.9094 14.2392 20.2044 15.0117 19.8394 15.5029L14.8407 22.2404C14.4494 22.7679 13.7169 22.4404 13.7169 21.7379V16.5229C13.7169 16.1029 13.4294 15.7617 13.0744 15.7617H10.6444C10.0932 15.7617 9.79819 14.9892 10.1632 14.4979" stroke="white" stroke-width="1.25" stroke-linecap="round" stroke-linejoin="round"/>
</svg>
