<svg width="30" height="30" viewBox="0 0 30 30" fill="none" xmlns="http://www.w3.org/2000/svg">
<path d="M23.75 17.5V9.375L17.5 5L11.25 9.375V11.25H8.75V8.125L17.5 1.875L26.25 8.125V17.5H23.75ZM18.125 10H19.375V8.75H18.125V10ZM15.625 10H16.875V8.75H15.625V10ZM18.125 12.5H19.375V11.25H18.125V12.5ZM15.625 12.5H16.875V11.25H15.625V12.5ZM8.75 23.125L17.4375 25.5L24.875 23.1875C24.7708 23 24.6196 22.8383 24.4213 22.7025C24.2229 22.5667 23.9992 22.4992 23.75 22.5H17.4375C16.875 22.5 16.4271 22.4792 16.0938 22.4375C15.7604 22.3958 15.4167 22.3125 15.0625 22.1875L12.1562 21.2188L12.8438 18.7812L15.375 19.625C15.7292 19.7292 16.1458 19.8125 16.625 19.875C17.1042 19.9375 17.8125 19.9792 18.75 20C18.75 19.7708 18.6825 19.5521 18.5475 19.3438C18.4125 19.1354 18.2508 19 18.0625 18.9375L10.75 16.25H8.75V23.125ZM1.25 27.5V13.75H10.75C10.8958 13.75 11.0417 13.7658 11.1875 13.7975C11.3333 13.8292 11.4687 13.8654 11.5938 13.9062L18.9375 16.625C19.625 16.875 20.1825 17.3125 20.61 17.9375C21.0375 18.5625 21.2508 19.25 21.25 20H23.75C24.7917 20 25.6771 20.3438 26.4062 21.0312C27.1354 21.7188 27.5 22.625 27.5 23.75V25L17.5 28.125L8.75 25.6875V27.5H1.25ZM3.75 25H6.25V16.25H3.75V25Z" fill="white"/>
</svg>
